<?xml version="1.0" encoding="utf-8"?>
<!-- Svg Vector Icons : http://www.onlinewebfonts.com/icon -->
<!DOCTYPE svg PUBLIC "-//W3C//DTD SVG 1.1//EN" "http://www.w3.org/Graphics/SVG/1.1/DTD/svg11.dtd">
<svg version="1.1" xmlns="http://www.w3.org/2000/svg" xmlns:xlink="http://www.w3.org/1999/xlink" x="0px" y="0px" viewBox="0 0 1000 1000" enable-background="new 0 0 1000 1000" xml:space="preserve" >
<metadata> Svg Vector Icons : http://www.onlinewebfonts.com/icon </metadata>
<g><path d="M656.7,592.6c-5.5-13.2-19.3-22.5-33.6-22.5H392.2c-13.9,0-27.7,8.9-33.5,21.6l-61.6,135.1c-4,8.7-3.9,18.5,0.4,26.8c4.2,8.3,12,14.2,21.3,16.1c64.1,13.4,128.9,20.2,192.6,20.2c60.7,0,121.1-6.2,179.6-18.4c9.1-1.9,16.9-7.7,21.1-15.8c4.3-8.1,4.7-17.7,1.1-26.4L656.7,592.6z M350.6,726.4l49.2-107.8H615l45.2,109.3C560,746.2,454.9,745.6,350.6,726.4z"/><path d="M987.1,767.5l-47.4-106.2c-7.2-16.2-28.2-23.4-43.9-15.2c-21.5,11.3-43.3,21.6-66.2,31.2l-58.2-281.7c17.7,10.4,35.2,29.7,40.7,65.7c2.4,16.2,16.5,28.4,33.9,28.4c0,0,0,0,0,0l61-2c17.4-0.5,31.6-15.2,31.6-32.6V110.9c0-17.7-14.3-32.1-33.2-32.1c0,0,0,0,0,0C857.2,80.7,615,99.2,516,281.9H212.1c-15.3,0-29.4,10.8-33.5,25.7c-6.6,24.3-44.4,87.7-79.2,97.1c-10,2.7-17.6,9.5-21,18.6c-3.3,9-2,18.8,3.7,27c13.2,19.1,52.5,49.5,101.9,49.5c6.1,0,12.2-0.5,18.3-1.4l-27.5,177.5c-33.4-13.3-56.3-24.8-65.6-29.7c-15.6-8.2-36-1.5-43.7,14.3L13.3,766.9c-3.8,7.8-4.4,16.6-1.5,24.8c2.9,8.2,8.8,14.8,16.7,18.5c155.8,73.6,317,110.9,479.2,110.9c253.3,0,432.1-92.6,465.4-111.1C987.9,801.7,994.1,783.1,987.1,767.5z M507.7,872.6c-149.8,0-298.9-33.4-443.5-99.3l37.4-76.5c17.2,8.4,43.1,20,76.4,32.4c3.6,1.3,7.3,2,11,2c15.2,0,27.9-11.1,30.2-26.3L255,474.9c1.4-8.9-0.9-17.3-6.3-23.7c-7.9-9.2-21.6-12-33.5-6.8c-10.2,4.5-20.7,6.8-31.2,6.8c-17.1,0-32.2-6-43.3-12.8c41.6-26.9,70.8-81.1,81.3-108h300.8c13.4,0,27.1-8.4,33.3-20.4c76.7-148.9,267-176.6,334-181.7v311.4l-32.5,1.1c-18.5-80.7-85-99.4-105.8-103.3l-5.8-0.5c-9,0-17.3,3.9-22.8,10.7c-5.7,7-7.8,16.2-6,25.4l69.1,334.6c3,14.6,15.5,24.9,30.2,24.9c3.9,0,7.8-0.7,11.5-2.2c26-10.2,50.5-21,74.5-33.1l34.4,77.1C885.7,800.8,726.4,872.6,507.7,872.6z"/><path d="M823.6,286.2c31.3,0,31.3-48.5,0-48.5C792.3,237.6,792.3,286.2,823.6,286.2z"/></g>
</svg>